<?xml version="1.0" encoding="utf-8"?>
<!-- Generator: Adobe Illustrator 19.2.1, SVG Export Plug-In . SVG Version: 6.00 Build 0)  -->
<!DOCTYPE svg PUBLIC "-//W3C//DTD SVG 1.1//EN" "http://www.w3.org/Graphics/SVG/1.1/DTD/svg11.dtd">
<svg version="1.1" id="Layer_2" xmlns="http://www.w3.org/2000/svg" xmlns:xlink="http://www.w3.org/1999/xlink" x="0px" y="0px"
	 viewBox="0 0 301 350" style="enable-background:new 0 0 301 350;" xml:space="preserve">
<style type="text/css">
	.st0{fill:#5F5F5F;}
	.st1{fill:#CD6634;}
	.st2{fill:none;stroke:#484A4A;stroke-width:0.5;stroke-linecap:round;stroke-linejoin:round;}
	.st3{fill:none;stroke:#AE572A;stroke-width:0.5;stroke-linecap:round;stroke-linejoin:round;}
	.st4{fill:#FFFFFF;}
	.st5{fill:#F1F2F2;}
	.st6{fill:#E6E7E8;}
	.st7{fill:#D66E3B;}
	.st8{fill:#5B5C5C;}
	.st9{fill:#C86433;}
	.st10{fill:#CE6A39;}
	.st11{fill:#C46232;}
	.st12{fill:#CA6433;}
	.st13{fill:#5A5B5B;}
	.st14{fill:#636464;}
</style>
<g>
	<path class="st0" d="M293.6,235.8c0-5.6-5.2-9.1-9.3-14.6c0,0,0,0,0,0c-2.8-3.8-5-8.5-4.6-15.5c2-32-10-55.6-28-69
		c13.3-8,35-36.1,32.9-63.8c-1.9-24.4-21.4-38.9-40.4-38.1v0c3.9,20.6-3.7,51.2-29.3,51.2c5.2,4.3,10.5,8,14.7,10.8
		c17.4,11.8,12.4,27.8,9.7,32.6l0,0c-2.4-1-4.8-1.9-7.3-2.7c-1.2-0.4-2.4-0.7-3.6-1c-8-1.8-16.4-1.2-23.8,2.3v0
		c-1.4,0.7-2.7-1.1-2.2-2.2h0c2.5-6,4.5-11.8,6-17.1c0,0,0,0,0-0.1c0.3-1.3-0.4-3.1-2.1-3.8c0,0,0,0,0,0c-0.1,0-0.2-0.1-0.3-0.1
		c0,0,0,0-0.1,0c-5.9-1.9-13.5-8.1-25.6-22.4c-3.1-3.6-7.3-6.9-12.4-9.8c7.4-22.1-0.6-54-18.5-67.4c-22.3,12-32.2,47.2-32.2,57.3
		c-8.6,0.6-17.4,2.3-25.8,5.4c-8.4,3.1-16.2,7.5-23.2,12.6c-6.6-7.7-36.9-28.1-61.6-22.8c-5,21.8,9.5,51.2,29.5,63.3
		c-2,5.4-3.1,10.7-3.1,15.4c0,18.7-1.8,28.3-5.1,33.6c-0.1,0.1-0.1,0.2-0.2,0.3c0,0,0,0,0,0c-0.9,1.6-0.2,3.5,0.9,4.2
		c4.8,3.3,10.3,6.5,16.3,9.6c11.7,5.9,25.3,11.2,38.6,15.2c0,0-2.8,33.2-6.2,60c-2.1,16.7-4.5,30.9-6.6,33
		c-5.5,5.5-20.5,12.1-20.3,21.3c0.3,12.4,11.2,18.3,21.1,15.9s24.4-9.4,22.4-24c-1-7.7,2.1-24.4,5.3-39.7c1.5-7,2.9-13.6,4-19
		c12.9,5.2,27.4,7.3,41.5,6.6c1.1,6,2.1,12.6,2.8,19.1c2,17.9,2,35.2-3.7,39.2c-10.7,7.5-15.6,19.2-7.2,27.5
		c8.4,8.4,25.8,4.3,30.5-5.1c4.7-9.4,8.6-15.6,5.2-27.8c-1.6-5.6-2.1-20.2-2.1-34.2c0,0,0,0,0,0c0-8.6,0.1-17.1,0.2-23
		c7.3-2.1,14-5,20-8.6c3.8-2.3,7.6-4.5,11.3-6.8c2.6,2.8,4.2,5.6,4.2,9.3c0,9.8,0.3,22.2-9.5,27.1c-9.8,5-11.3,18.3-3.8,23.6
		c6.2,4.4,12.6,5.8,21.4,4.8c10.8-1.2,15.8-9.1,13.9-19.8s6-37.7,6-47.1c0-5.2-4.5-8.5-8.3-13.3c2.9-2,5.6-4,8.2-6.1l0,0
		c0.7-0.5,1.4-0.4,2,0.4h0c2.1,3.3,4.6,6.2,7.3,9c5.4,5.4,10.9,9.2,15.1,12.8c4.4,3.8,7.4,7.3,7.4,12.4c0,9.8,0.3,22.2-9.5,27.1
		c-9.8,5-11.3,18.3-3.8,23.6c6.2,4.4,12.6,5.8,21.4,4.8c10.8-1.2,15.8-9.1,13.9-19.8S293.6,245.3,293.6,235.8z"/>
	<path class="st1" d="M279.7,205.7c2-32-10-55.6-28-69c13.3-8,35-36.1,32.9-63.8c-1.9-24.4-21.4-38.9-40.4-38.1v0
		c3.9,20.6-3.7,51.2-29.3,51.2c5.2,4.3,10.5,8,14.7,10.8c17.4,11.8,12.4,27.8,9.7,32.6l0,0c-2.4-1-4.8-1.9-7.3-2.7
		c-1.2-0.4-2.4-0.7-3.6-1c-8-1.8-16.4-1.2-23.8,2.3v0c-1.4,0.7-2.7-1.1-2.2-2.2h0c2.5-6,4.5-11.8,6-17.1c0,0,0,0,0-0.1
		c0.3-1.3-0.4-3.1-2.1-3.8c0,0,0,0,0,0c-0.1,0-0.2-0.1-0.3-0.1c0,0,0,0-0.1,0c-5.9-1.9-13.5-8.1-25.6-22.4
		c-3.1-3.6-7.3-6.9-12.4-9.8c7.4-22.1-0.6-54-18.5-67.4c-22.3,12-32.2,47.2-32.2,57.3c-8.6,0.6-17.4,2.3-25.8,5.4
		c-8.4,3.1-16.2,7.5-23.2,12.6c-6.6-7.7-36.9-28.1-61.6-22.8c-5,21.8,9.5,51.2,29.5,63.3c-2,5.4-3.1,10.7-3.1,15.4
		c0,18.7-1.8,28.3-5.1,33.6c-0.1,0.1-0.1,0.2-0.2,0.3c0,0,0,0,0,0c-0.9,1.6-0.2,3.5,0.9,4.2c4.8,3.3,10.3,6.5,16.3,9.6
		c11.7,5.9,25.3,11.2,38.6,15.2c0,0-2.8,33.2-6.2,60c0-0.2,0.4-0.5,0.7-0.3c5.9,3.5,13.2,6,20.6,6.1c0.4,0,0.7,0.2,0.6,0.8h0
		c1.5-7,2.9-13.6,4-19c12.9,5.2,27.4,7.3,41.5,6.6c1.1,6,2.1,12.6,2.8,19.1c0-0.6,0.4-0.9,0.9-0.8c6.5,2.1,13.9,2.2,20.5-0.4
		c0,0,0,0,0,0c0.6-0.2,1.1,0,1.1,0.8c0-8.6,0.1-17.1,0.2-23c7.3-2.1,14-5,20-8.6c3.8-2.3,7.6-4.5,11.3-6.8
		c8.4-5.1,16.5-10.2,23.9-15.4c2.9-2,5.6-4,8.2-6.1l0,0c0.7-0.5,1.4-0.4,2,0.4h0c2.1,3.3,4.6,6.2,7.3,9c5.4,5.4,10.9,9.2,15.1,12.8
		v0c-0.7-0.6-0.4-1,0.2-1.1c0,0,0,0,0,0c9.2-1.3,19.3-5.4,24.6-12.6c0.3-0.5,0.8-0.5,1.3,0.2C281.5,217.4,279.2,212.7,279.7,205.7z
		 M39.1,114.2c-15-10.7-23.2-31.8-24.2-41.1c12-2,35.1,12.7,40.4,18.7C48.4,98.9,42.9,106.6,39.1,114.2z M161,69.4
		c-7.8-3.3-17-5.6-26.8-6.5c0-7.9,8.1-34.2,18.6-40.5C158.1,30.1,165.5,51.5,161,69.4z"/>
	<path class="st2" d="M74.3,294.7c6.1,1,11.2,2.8,15.5,5.6 M167.6,311.4c-5.3-1.3-11.2-1.8-17.2-1.3 M221.9,273.3
		c-4.5-2.1-10.1-3-16.4-3.1 M282.9,275.9c-4.9-2.5-11.1-3.6-18.2-3.5"/>
	<path class="st3" d="M231.7,205.3c-2.8-6.8-4.3-15.1-4.3-25.9 M273.8,94.9c5.9-19.6-3.1-38.7-18.9-46.5"/>
	<path class="st4" d="M189.7,135c-10.6,7.7-21.8,20.1-35.1,14.4c-17.8-7.6-23.2-7-34.1-3.1c-10.8,4.2-15.3,7.1-24,24.5
		c-6.4,12.9-23.8,11-36.8,12c0,3.4,9.3,11.9,21.1,15.9c0.9,0.3,1.8,0.6,2.7,0.8c24.3,7.3,47.8,6.3,58.4,2
		c11.3-3.6,28-18.4,42.1-40.7C190.3,150.1,191.9,137.6,189.7,135L189.7,135z"/>
	<path class="st4" d="M244.1,34.9L244.1,34.9c-2.6,0.1-5.1,0.5-7.6,1.2c-19.5,5.3-32.5-3.4-39.8-10.2c0,0,0,0,0,0
		c-0.9-0.8-2.2-0.1-2.7,0.8c0,0,0,0,0,0c-11.1,26.4,4.9,46.3,20.8,59.5C240.4,86.1,248,55.4,244.1,34.9z"/>
	<path class="st5" d="M244.9,41.1c-3.5,0.1-6.9,0.8-10.2,1.9c-15.2,5.4-30.6,3.3-41.8-13.4c-8.7,24.9,6.7,43.8,22,56.5
		C238,86.1,246.4,61.1,244.9,41.1z"/>
	<g>
		<g id="XMLID_2_">
			<path class="st6" d="M166.2,183.8c-8.9,9.4-17.6,15.6-24.4,17.7c-10.5,4.4-34.1,5.4-58.4-2c-0.9-0.3-1.8-0.6-2.7-0.9
				C95,202.4,135.2,206.2,166.2,183.8z"/>
			<path class="st6" d="M140,152.9c0.1,0.4,0.2,0.7,0.2,1.1c0,0.6-0.1,1.2-0.3,1.9c-0.2,0.6-0.4,1.3-0.8,1.9
				c-0.6,1.3-1.4,2.7-2.4,4.1c-1.8,2.8-3.9,5.6-5.2,7.3l0,0l-0.1,0.1l0,0c-0.5,0.6-1.2,1-1.8,1.3c-0.7,0.3-1.4,0.4-2,0.4
				c-0.3,0-0.6,0-0.9-0.1h0c-1.5-0.3-3.6-0.8-5.8-1.4c-2.2-0.6-4.5-1.3-6.4-2.1c-1.3-0.5-2.4-1.1-3.3-1.8c-0.5-0.4-0.9-0.9-1.2-1.6
				c-0.3-0.8-0.5-1.7-0.5-2.7c0-2.2,0.9-4.6,2.8-6.8c1-1.1,2.2-2.2,3.7-3.2c1.5-1,3.3-1.9,5.5-2.6c0,0,0,0,0,0c0,0,0,0,0,0
				c3.2-1.2,6-1.7,8.4-1.7C135.3,146.9,138.9,149.7,140,152.9z"/>
			<path class="st5" d="M140,152.9c-1.1-3.2-4.7-5.9-10.2-5.9c-2.4,0-5.2,0.5-8.4,1.7c0,0,0,0,0,0c0,0,0,0,0,0
				c-2.1,0.8-4,1.6-5.5,2.6c-1.5,1-2.8,2.1-3.7,3.2c-1.9,2.2-2.8,4.6-2.8,6.8c0,1,0.2,1.9,0.5,2.7c0.3,0.7,0.7,1.1,1.2,1.6
				c0.9,0.7,2,1.3,3.3,1.8c1.9,0.8,4.2,1.5,6.4,2.1c2.2,0.6,4.3,1.1,5.8,1.4h0c0.3,0.1,0.6,0.1,0.9,0.1c0.7,0,1.4-0.1,2-0.4
				c0.7-0.3,1.3-0.7,1.8-1.3l0,0l0.1-0.1l0,0c1.3-1.7,3.4-4.5,5.2-7.3c0.9-1.4,1.7-2.8,2.4-4.1c0.3-0.7,0.6-1.3,0.8-1.9
				c0.2-0.6,0.3-1.2,0.3-1.9C140.2,153.6,140.1,153.2,140,152.9z M122.3,145.6c3.8-1.1,17.7-0.9,25.5,3.9s22.1,9.4,36-4.4
				c3.7,3.7,1.2,13.9,1.2,13.9h0c-0.3,0.6-0.7,1.2-1,1.8c-5.7,9-11.7,16.7-17.7,23l0,0c-31,22.5-71.2,18.6-85.5,14.9
				c-11.8-4-21.1-12.5-21.1-15.9c13.6,6.5,32.1,3.3,36.9-5c4.4-7.7,8.7-21.8,12.9-25.7c0,0,0,0,0,0c0.3-0.2,0.6-0.4,0.8-0.6
				c2.9-2.1,6.1-3.5,10.2-5.1C121.1,146,121.7,145.8,122.3,145.6L122.3,145.6z"/>
		</g>
	</g>
	<g id="XMLID_4_">
		<path class="st7" d="M212.3,125.5c-0.9,2.5-1.8,5-2.6,7.4c-3.8,0.4-7.4,1.1-10.8,2c1.3-3.1,2.4-5.9,3.3-8.3
			c0.1,0.8,0.8,1.6,1.6,1.6c0.2,0,0.4,0,0.6-0.1C207,126.9,209.6,126.1,212.3,125.5z"/>
		<path class="st8" d="M287.9,288.3c-0.4,7.8-5.4,13.4-14.2,14.4c-8.9,1-15.3-0.4-21.4-4.8c-3.1-2.2-4.6-5.8-4.7-9.6
			C255.9,296.7,275.4,300.9,287.9,288.3z"/>
		<path class="st8" d="M225.5,218.7c1.7,2.2,3.6,4.1,5.1,5.9c-5.3,4.9-15.4,13.5-25,16.8c-0.5-2.8-1.9-5.1-4-7.4
			C210.1,228.9,218.2,223.9,225.5,218.7z"/>
		<path class="st8" d="M228.2,283.3c0.1,8.5-5,14.5-14.3,15.6c-8.9,1-15.3-0.4-21.4-4.8c-3.1-2.2-4.6-5.7-4.7-9.4
			C195.7,292.6,218.1,298,228.2,283.3z"/>
		<path class="st8" d="M173.3,311.4c0.9,6.4-0.5,11.2-2.8,16.2c-2.4,3.2-5.7,5.5-9.5,6.9C165.4,332.3,171.9,321.8,173.3,311.4z"/>
		<path class="st8" d="M136.6,339.6c-3-3-4.3-6.4-4.2-10h0c6.4,6.4,19,8.5,28.7,4.9c3.8-1.4,7.1-3.7,9.5-6.9c-1,2.2-2.2,4.4-3.4,6.9
			C162.4,344,144.9,348,136.6,339.6z"/>
		<path class="st8" d="M50.7,311.4c6,11.2,17.1,13.5,23.6,11.6c6.4-2,16.5-8.8,19.6-17.2c2,14.6-12.6,21.6-22.4,24
			c-9.8,2.4-20.8-3.5-21.1-15.9C50.4,313,50.5,312.2,50.7,311.4z"/>
		<path class="st8" d="M55.3,91.8c-2.9,2.9-5.5,6-7.9,9.1c-0.5-0.6-18.6-21.3-31.6-23.2c-0.5-1.8-0.7-3.4-0.9-4.7
			C27,71.1,50.1,85.8,55.3,91.8z"/>
		<path class="st8" d="M152.8,22.4c1.2,1.7,2.5,4.2,3.7,7.1c-7.4,5.3-11.4,25.8-11.4,35c-3.5-0.7-7.2-1.3-10.9-1.7
			C134.2,54.9,142.3,28.7,152.8,22.4z"/>
		<g>
			<path class="st9" d="M86.4,144.6c-1.8,0-3.6,0.4-5.1,1.2L61,153c6,6,17.9,17.5,28.7,13.9l-0.1-0.5c4.6-1.4,8-5.6,8-10.7
				C97.5,149.6,92.5,144.6,86.4,144.6z"/>
			<path class="st9" d="M167.8,116.8c0,0-7.9,2.3-13.9,3.6c-0.4,0-0.7-0.1-1.1-0.1c-6.7,0-12.1,5.4-12.1,12.1
				c0,6.7,5.4,12.1,12.1,12.1c4.1,0,7.7-2,9.9-5.1c0,0,0,0,0,0C170.4,131.7,167.8,116.8,167.8,116.8z"/>
		</g>
		<path class="st10" d="M117.1,62.6c7.1,0,8.9,0,8.9,0s3.4-0.3,8.2,0.2c3.8,0.4,7.4,0.9,10.9,1.7v0c5.7,1.2,11,2.8,15.9,4.9
			c0,0,0,0,6.8,3.3c5.1,2.8,9.3,6.1,12.4,9.8c0.8,1,1.6,1.9,2.4,2.8C145.6,66,112,72,102.8,95C82,83.2,62.6,94.6,36,121.1
			c0,0,0.9-3,3.1-7c2.2-4.4,5-8.9,8.3-13.2c2.4-3.1,5-6.2,7.9-9.1c6.3-6.3,8.5-8.6,8.5-8.6c4.4-2.6,4.4-2.6,4.4-2.6
			c6.9-5.1,14.7-9.5,23.2-12.6C99.8,64.9,108.5,63.2,117.1,62.6z"/>
		<path class="st7" d="M212.3,125.5c5.2-1.1,10.7-0.9,16,0.3c1.2,0.3,2.4,0.6,3.6,1c2.5,0.8,4.9,1.6,7.3,2.7
			c3.9,1.8,9.2,4.6,12.5,7.2c5.2,3.8,9.8,8.5,13.8,13.9c-20.6-16.4-39.9-19.6-55.8-17.8C210.5,130.5,211.4,128.1,212.3,125.5z"/>
		<path class="st7" d="M244.1,34.8c17.5-0.8,35.5,11.5,39.7,32.5h0c-9.6-18.2-24.5-26.8-38.8-26.3C244.8,38.9,244.5,36.8,244.1,34.8
			z"/>
		<path class="st11" d="M239.2,129.5c1.2-2,2.8-6.1,2.8-11.1c5.7,4.1,12.9,6.8,22.8,6.4c-4.6,5.4-9.2,9.5-13.2,11.8
			C248.4,134.1,243.1,131.2,239.2,129.5z"/>
		<path class="st12" d="M198.8,134.9c3.4-0.9,7-1.6,10.8-2c-23.5,62.3-57.7,78-64.5,79.8c-7.6,2-20.4,4.7-62.5-3
			c0.6-6.2,0.9-10.2,0.9-10.2c24.3,7.3,47.9,6.4,58.4,2c9.6-3.1,23-14.1,35.5-31.1C188,157.3,194.6,144.6,198.8,134.9z"/>
		<path class="st7" d="M169.5,42.2L169.5,42.2c-2.8-13-14.7-26.4-19.9-28.4c0,0-20.6,19.8-23.6,48.9c0,0-1.8,0-8.9,0
			c0-10.1,9.9-45.3,32.2-57.3C159.8,13.2,166.9,27.3,169.5,42.2z"/>
		<path class="st7" d="M68.2,80.6c0,0,0,0-4.4,2.6C52,71.5,33.2,61.5,11,61.5c0,0-5.2,5.2-5.2,10.5c-0.5-4.9-0.3-9.7,0.7-14.2
			C31.3,52.5,61.6,72.9,68.2,80.6z"/>
	</g>
	<path class="st0" d="M138.6,153.3c0.9,2.8-5.5,11.3-8.2,14.9c0,0,0,0,0,0.1c-0.8,1-2.3,1.3-3.4,1.1c-4.5-0.9-14.7-3.3-15.7-6
		c-1.4-3.4,0.6-9.8,10.6-13.3C131.8,146.3,137.4,149.8,138.6,153.3z M82.7,152.1c-2.6,2.2-2.9,6.1-0.7,8.8c2.2,2.6,6.1,2.9,8.8,0.7
		s2.9-6.1,0.7-8.8C89.2,150.2,85.3,149.9,82.7,152.1z M146.8,132.5c0,3.4,2.8,6.2,6.2,6.2c3.4,0,6.2-2.8,6.2-6.2
		c0-3.4-2.8-6.2-6.2-6.2C149.6,126.3,146.8,129.1,146.8,132.5z"/>
	<g>
		<g id="XMLID_1_">
			<path class="st13" d="M92.1,159.9c-0.3,0.6-0.8,1.2-1.4,1.7c-2.6,2.2-6.5,1.9-8.8-0.7c-0.8-0.9-1.2-1.9-1.4-3
				C83.1,160.4,88,162.4,92.1,159.9z"/>
			<path class="st13" d="M115.1,166c4.3,1.5,14.6,1.9,18.2-1.7c-1.1,1.5-2.1,2.9-2.9,3.9c0,0,0,0-0.1,0.1c-0.8,1-2.3,1.3-3.4,1.1
				C124,168.7,118.7,167.5,115.1,166z"/>
			<path class="st13" d="M158.7,135c-1,2.2-3.1,3.7-5.7,3.7c-3.1,0-5.6-2.2-6.1-5.1C149.1,135.9,154.3,138.3,158.7,135z"/>
			<path class="st14" d="M82.7,152.1c2.6-2.2,6.5-1.9,8.8,0.7c0.7,0.8,1.1,1.7,1.3,2.6c-1.7-3.6-9.5-3.4-11.5-1.5
				C81.6,153.2,82.1,152.6,82.7,152.1z"/>
			<path class="st14" d="M138.6,153.3c0.4,1.2-0.6,3.6-2.1,6.1c1.2-5-4.6-7.6-10.8-7c-6.2,0.6-13.9,5.1-14.8,8.6
				c0.1-3.5,3-8.1,11-11C131.8,146.3,137.4,149.8,138.6,153.3z"/>
			<path class="st14" d="M153,126.3c3.2,0,5.9,2.5,6.2,5.7c-1.8-4.7-8.5-5.2-11.5-2.6C148.8,127.5,150.8,126.3,153,126.3z"/>
		</g>
	</g>
	<path class="st4" d="M90.3,154.2c0,0.9-0.7,1.6-1.6,1.6s-1.6-0.7-1.6-1.6s0.7-1.6,1.6-1.6S90.3,153.3,90.3,154.2z M155,128.3
		c-0.9,0-1.6,0.7-1.6,1.6c0,0.9,0.7,1.6,1.6,1.6c0.9,0,1.6-0.7,1.6-1.6S155.8,128.3,155,128.3z"/>
</g>
</svg>
